G04 #@! TF.GenerationSoftware,KiCad,Pcbnew,(5.1.5)-3*
G04 #@! TF.CreationDate,2020-04-12T01:01:47+02:00*
G04 #@! TF.ProjectId,schinkli_brain,73636869-6e6b-46c6-995f-627261696e2e,rev?*
G04 #@! TF.SameCoordinates,Original*
G04 #@! TF.FileFunction,Soldermask,Top*
G04 #@! TF.FilePolarity,Negative*
%FSLAX46Y46*%
G04 Gerber Fmt 4.6, Leading zero omitted, Abs format (unit mm)*
G04 Created by KiCad (PCBNEW (5.1.5)-3) date 2020-04-12 01:01:47*
%MOMM*%
%LPD*%
G04 APERTURE LIST*
%ADD10C,0.100000*%
G04 APERTURE END LIST*
D10*
G36*
X86875256Y-124891298D02*
G01*
X86981579Y-124912447D01*
X87282042Y-125036903D01*
X87552451Y-125217585D01*
X87782415Y-125447549D01*
X87963097Y-125717958D01*
X88087553Y-126018421D01*
X88151000Y-126337391D01*
X88151000Y-126662609D01*
X88087553Y-126981579D01*
X87963097Y-127282042D01*
X87782415Y-127552451D01*
X87552451Y-127782415D01*
X87282042Y-127963097D01*
X86981579Y-128087553D01*
X86875256Y-128108702D01*
X86662611Y-128151000D01*
X86337389Y-128151000D01*
X86124744Y-128108702D01*
X86018421Y-128087553D01*
X85717958Y-127963097D01*
X85447549Y-127782415D01*
X85217585Y-127552451D01*
X85036903Y-127282042D01*
X84912447Y-126981579D01*
X84849000Y-126662609D01*
X84849000Y-126337391D01*
X84912447Y-126018421D01*
X85036903Y-125717958D01*
X85217585Y-125447549D01*
X85447549Y-125217585D01*
X85717958Y-125036903D01*
X86018421Y-124912447D01*
X86124744Y-124891298D01*
X86337389Y-124849000D01*
X86662611Y-124849000D01*
X86875256Y-124891298D01*
G37*
G36*
X53875256Y-124891298D02*
G01*
X53981579Y-124912447D01*
X54282042Y-125036903D01*
X54552451Y-125217585D01*
X54782415Y-125447549D01*
X54963097Y-125717958D01*
X55087553Y-126018421D01*
X55151000Y-126337391D01*
X55151000Y-126662609D01*
X55087553Y-126981579D01*
X54963097Y-127282042D01*
X54782415Y-127552451D01*
X54552451Y-127782415D01*
X54282042Y-127963097D01*
X53981579Y-128087553D01*
X53875256Y-128108702D01*
X53662611Y-128151000D01*
X53337389Y-128151000D01*
X53124744Y-128108702D01*
X53018421Y-128087553D01*
X52717958Y-127963097D01*
X52447549Y-127782415D01*
X52217585Y-127552451D01*
X52036903Y-127282042D01*
X51912447Y-126981579D01*
X51849000Y-126662609D01*
X51849000Y-126337391D01*
X51912447Y-126018421D01*
X52036903Y-125717958D01*
X52217585Y-125447549D01*
X52447549Y-125217585D01*
X52717958Y-125036903D01*
X53018421Y-124912447D01*
X53124744Y-124891298D01*
X53337389Y-124849000D01*
X53662611Y-124849000D01*
X53875256Y-124891298D01*
G37*
G36*
X53613512Y-120303927D02*
G01*
X53762812Y-120333624D01*
X53926784Y-120401544D01*
X54074354Y-120500147D01*
X54199853Y-120625646D01*
X54298456Y-120773216D01*
X54366376Y-120937188D01*
X54401000Y-121111259D01*
X54401000Y-121288741D01*
X54366376Y-121462812D01*
X54298456Y-121626784D01*
X54199853Y-121774354D01*
X54074354Y-121899853D01*
X53926784Y-121998456D01*
X53762812Y-122066376D01*
X53613512Y-122096073D01*
X53588742Y-122101000D01*
X53411258Y-122101000D01*
X53386488Y-122096073D01*
X53237188Y-122066376D01*
X53073216Y-121998456D01*
X52925646Y-121899853D01*
X52800147Y-121774354D01*
X52701544Y-121626784D01*
X52633624Y-121462812D01*
X52599000Y-121288741D01*
X52599000Y-121111259D01*
X52633624Y-120937188D01*
X52701544Y-120773216D01*
X52800147Y-120625646D01*
X52925646Y-120500147D01*
X53073216Y-120401544D01*
X53237188Y-120333624D01*
X53386488Y-120303927D01*
X53411258Y-120299000D01*
X53588742Y-120299000D01*
X53613512Y-120303927D01*
G37*
G36*
X85506905Y-118008789D02*
G01*
X85805350Y-118068153D01*
X86133122Y-118203921D01*
X86428109Y-118401025D01*
X86678975Y-118651891D01*
X86876079Y-118946878D01*
X87011847Y-119274650D01*
X87061918Y-119526376D01*
X87075032Y-119592303D01*
X87081060Y-119622611D01*
X87081060Y-119977389D01*
X87011847Y-120325350D01*
X86876079Y-120653122D01*
X86678975Y-120948109D01*
X86428109Y-121198975D01*
X86133122Y-121396079D01*
X85805350Y-121531847D01*
X85506905Y-121591211D01*
X85457390Y-121601060D01*
X85102610Y-121601060D01*
X85053095Y-121591211D01*
X84754650Y-121531847D01*
X84426878Y-121396079D01*
X84131891Y-121198975D01*
X83881025Y-120948109D01*
X83683921Y-120653122D01*
X83548153Y-120325350D01*
X83478940Y-119977389D01*
X83478940Y-119622611D01*
X83484969Y-119592303D01*
X83498082Y-119526376D01*
X83548153Y-119274650D01*
X83683921Y-118946878D01*
X83881025Y-118651891D01*
X84131891Y-118401025D01*
X84426878Y-118203921D01*
X84754650Y-118068153D01*
X85053095Y-118008789D01*
X85102610Y-117998940D01*
X85457390Y-117998940D01*
X85506905Y-118008789D01*
G37*
G36*
X82001060Y-121601060D02*
G01*
X78398940Y-121601060D01*
X78398940Y-117998940D01*
X82001060Y-117998940D01*
X82001060Y-121601060D01*
G37*
G36*
X59485818Y-120407696D02*
G01*
X59599105Y-120442062D01*
X59703512Y-120497869D01*
X59795027Y-120572973D01*
X59870131Y-120664488D01*
X59925938Y-120768895D01*
X59960304Y-120882182D01*
X59971907Y-121000000D01*
X59960304Y-121117818D01*
X59925938Y-121231105D01*
X59870131Y-121335512D01*
X59795027Y-121427027D01*
X59703512Y-121502131D01*
X59599105Y-121557938D01*
X59485818Y-121592304D01*
X59397519Y-121601000D01*
X57938481Y-121601000D01*
X57850182Y-121592304D01*
X57736895Y-121557938D01*
X57632488Y-121502131D01*
X57540973Y-121427027D01*
X57465869Y-121335512D01*
X57410062Y-121231105D01*
X57375696Y-121117818D01*
X57364093Y-121000000D01*
X57375696Y-120882182D01*
X57410062Y-120768895D01*
X57465869Y-120664488D01*
X57540973Y-120572973D01*
X57632488Y-120497869D01*
X57736895Y-120442062D01*
X57850182Y-120407696D01*
X57938481Y-120399000D01*
X59397519Y-120399000D01*
X59485818Y-120407696D01*
G37*
G36*
X75369000Y-121601000D02*
G01*
X72767000Y-121601000D01*
X72767000Y-120399000D01*
X75369000Y-120399000D01*
X75369000Y-121601000D01*
G37*
G36*
X74885818Y-118407696D02*
G01*
X74999105Y-118442062D01*
X75103512Y-118497869D01*
X75195027Y-118572973D01*
X75270131Y-118664488D01*
X75325938Y-118768895D01*
X75360304Y-118882182D01*
X75371907Y-119000000D01*
X75360304Y-119117818D01*
X75325938Y-119231105D01*
X75270131Y-119335512D01*
X75195027Y-119427027D01*
X75103512Y-119502131D01*
X74999105Y-119557938D01*
X74885818Y-119592304D01*
X74797519Y-119601000D01*
X73338481Y-119601000D01*
X73250182Y-119592304D01*
X73136895Y-119557938D01*
X73032488Y-119502131D01*
X72940973Y-119427027D01*
X72865869Y-119335512D01*
X72810062Y-119231105D01*
X72775696Y-119117818D01*
X72764093Y-119000000D01*
X72775696Y-118882182D01*
X72810062Y-118768895D01*
X72865869Y-118664488D01*
X72940973Y-118572973D01*
X73032488Y-118497869D01*
X73136895Y-118442062D01*
X73250182Y-118407696D01*
X73338481Y-118399000D01*
X74797519Y-118399000D01*
X74885818Y-118407696D01*
G37*
G36*
X59485818Y-118407696D02*
G01*
X59599105Y-118442062D01*
X59703512Y-118497869D01*
X59795027Y-118572973D01*
X59870131Y-118664488D01*
X59925938Y-118768895D01*
X59960304Y-118882182D01*
X59971907Y-119000000D01*
X59960304Y-119117818D01*
X59925938Y-119231105D01*
X59870131Y-119335512D01*
X59795027Y-119427027D01*
X59703512Y-119502131D01*
X59599105Y-119557938D01*
X59485818Y-119592304D01*
X59397519Y-119601000D01*
X57938481Y-119601000D01*
X57850182Y-119592304D01*
X57736895Y-119557938D01*
X57632488Y-119502131D01*
X57540973Y-119427027D01*
X57465869Y-119335512D01*
X57410062Y-119231105D01*
X57375696Y-119117818D01*
X57364093Y-119000000D01*
X57375696Y-118882182D01*
X57410062Y-118768895D01*
X57465869Y-118664488D01*
X57540973Y-118572973D01*
X57632488Y-118497869D01*
X57736895Y-118442062D01*
X57850182Y-118407696D01*
X57938481Y-118399000D01*
X59397519Y-118399000D01*
X59485818Y-118407696D01*
G37*
G36*
X53613512Y-117763927D02*
G01*
X53762812Y-117793624D01*
X53926784Y-117861544D01*
X54074354Y-117960147D01*
X54199853Y-118085646D01*
X54298456Y-118233216D01*
X54366376Y-118397188D01*
X54401000Y-118571259D01*
X54401000Y-118748741D01*
X54366376Y-118922812D01*
X54298456Y-119086784D01*
X54199853Y-119234354D01*
X54074354Y-119359853D01*
X53926784Y-119458456D01*
X53762812Y-119526376D01*
X53613512Y-119556073D01*
X53588742Y-119561000D01*
X53411258Y-119561000D01*
X53386488Y-119556073D01*
X53237188Y-119526376D01*
X53073216Y-119458456D01*
X52925646Y-119359853D01*
X52800147Y-119234354D01*
X52701544Y-119086784D01*
X52633624Y-118922812D01*
X52599000Y-118748741D01*
X52599000Y-118571259D01*
X52633624Y-118397188D01*
X52701544Y-118233216D01*
X52800147Y-118085646D01*
X52925646Y-117960147D01*
X53073216Y-117861544D01*
X53237188Y-117793624D01*
X53386488Y-117763927D01*
X53411258Y-117759000D01*
X53588742Y-117759000D01*
X53613512Y-117763927D01*
G37*
G36*
X74885818Y-116407696D02*
G01*
X74999105Y-116442062D01*
X75103512Y-116497869D01*
X75195027Y-116572973D01*
X75270131Y-116664488D01*
X75325938Y-116768895D01*
X75360304Y-116882182D01*
X75371907Y-117000000D01*
X75360304Y-117117818D01*
X75325938Y-117231105D01*
X75270131Y-117335512D01*
X75195027Y-117427027D01*
X75103512Y-117502131D01*
X74999105Y-117557938D01*
X74885818Y-117592304D01*
X74797519Y-117601000D01*
X73338481Y-117601000D01*
X73250182Y-117592304D01*
X73136895Y-117557938D01*
X73032488Y-117502131D01*
X72940973Y-117427027D01*
X72865869Y-117335512D01*
X72810062Y-117231105D01*
X72775696Y-117117818D01*
X72764093Y-117000000D01*
X72775696Y-116882182D01*
X72810062Y-116768895D01*
X72865869Y-116664488D01*
X72940973Y-116572973D01*
X73032488Y-116497869D01*
X73136895Y-116442062D01*
X73250182Y-116407696D01*
X73338481Y-116399000D01*
X74797519Y-116399000D01*
X74885818Y-116407696D01*
G37*
G36*
X59485818Y-116407696D02*
G01*
X59599105Y-116442062D01*
X59703512Y-116497869D01*
X59795027Y-116572973D01*
X59870131Y-116664488D01*
X59925938Y-116768895D01*
X59960304Y-116882182D01*
X59971907Y-117000000D01*
X59960304Y-117117818D01*
X59925938Y-117231105D01*
X59870131Y-117335512D01*
X59795027Y-117427027D01*
X59703512Y-117502131D01*
X59599105Y-117557938D01*
X59485818Y-117592304D01*
X59397519Y-117601000D01*
X57938481Y-117601000D01*
X57850182Y-117592304D01*
X57736895Y-117557938D01*
X57632488Y-117502131D01*
X57540973Y-117427027D01*
X57465869Y-117335512D01*
X57410062Y-117231105D01*
X57375696Y-117117818D01*
X57364093Y-117000000D01*
X57375696Y-116882182D01*
X57410062Y-116768895D01*
X57465869Y-116664488D01*
X57540973Y-116572973D01*
X57632488Y-116497869D01*
X57736895Y-116442062D01*
X57850182Y-116407696D01*
X57938481Y-116399000D01*
X59397519Y-116399000D01*
X59485818Y-116407696D01*
G37*
G36*
X53613512Y-115223927D02*
G01*
X53762812Y-115253624D01*
X53926784Y-115321544D01*
X54074354Y-115420147D01*
X54199853Y-115545646D01*
X54298456Y-115693216D01*
X54366376Y-115857188D01*
X54401000Y-116031259D01*
X54401000Y-116208741D01*
X54366376Y-116382812D01*
X54298456Y-116546784D01*
X54199853Y-116694354D01*
X54074354Y-116819853D01*
X53926784Y-116918456D01*
X53762812Y-116986376D01*
X53613512Y-117016073D01*
X53588742Y-117021000D01*
X53411258Y-117021000D01*
X53386488Y-117016073D01*
X53237188Y-116986376D01*
X53073216Y-116918456D01*
X52925646Y-116819853D01*
X52800147Y-116694354D01*
X52701544Y-116546784D01*
X52633624Y-116382812D01*
X52599000Y-116208741D01*
X52599000Y-116031259D01*
X52633624Y-115857188D01*
X52701544Y-115693216D01*
X52800147Y-115545646D01*
X52925646Y-115420147D01*
X53073216Y-115321544D01*
X53237188Y-115253624D01*
X53386488Y-115223927D01*
X53411258Y-115219000D01*
X53588742Y-115219000D01*
X53613512Y-115223927D01*
G37*
G36*
X85637022Y-113210590D02*
G01*
X85737681Y-113241125D01*
X85788012Y-113256392D01*
X85901752Y-113317188D01*
X85927164Y-113330771D01*
X86049133Y-113430867D01*
X86149229Y-113552835D01*
X86223608Y-113691987D01*
X86238875Y-113742318D01*
X86269410Y-113842977D01*
X86281000Y-113960655D01*
X86281000Y-114839345D01*
X86269410Y-114957023D01*
X86256373Y-115000000D01*
X86223608Y-115108013D01*
X86149229Y-115247165D01*
X86049133Y-115369133D01*
X85927165Y-115469229D01*
X85788013Y-115543608D01*
X85740776Y-115557937D01*
X85637023Y-115589410D01*
X85480000Y-115604875D01*
X85322978Y-115589410D01*
X85219225Y-115557937D01*
X85171988Y-115543608D01*
X85032836Y-115469229D01*
X84910868Y-115369133D01*
X84810772Y-115247165D01*
X84736393Y-115108013D01*
X84703628Y-115000000D01*
X84690591Y-114957023D01*
X84679000Y-114839345D01*
X84679000Y-113960656D01*
X84690590Y-113842978D01*
X84736392Y-113691989D01*
X84736392Y-113691988D01*
X84810771Y-113552836D01*
X84852384Y-113502130D01*
X84910867Y-113430867D01*
X85032835Y-113330771D01*
X85058247Y-113317188D01*
X85171987Y-113256392D01*
X85222318Y-113241125D01*
X85322977Y-113210590D01*
X85480000Y-113195125D01*
X85637022Y-113210590D01*
G37*
G36*
X83097022Y-113210590D02*
G01*
X83197681Y-113241125D01*
X83248012Y-113256392D01*
X83361752Y-113317188D01*
X83387164Y-113330771D01*
X83509133Y-113430867D01*
X83609229Y-113552835D01*
X83683608Y-113691987D01*
X83698875Y-113742318D01*
X83729410Y-113842977D01*
X83741000Y-113960655D01*
X83741000Y-114839345D01*
X83729410Y-114957023D01*
X83716373Y-115000000D01*
X83683608Y-115108013D01*
X83609229Y-115247165D01*
X83509133Y-115369133D01*
X83387165Y-115469229D01*
X83248013Y-115543608D01*
X83200776Y-115557937D01*
X83097023Y-115589410D01*
X82940000Y-115604875D01*
X82782978Y-115589410D01*
X82679225Y-115557937D01*
X82631988Y-115543608D01*
X82492836Y-115469229D01*
X82370868Y-115369133D01*
X82270772Y-115247165D01*
X82196393Y-115108013D01*
X82163628Y-115000000D01*
X82150591Y-114957023D01*
X82139000Y-114839345D01*
X82139000Y-113960656D01*
X82150590Y-113842978D01*
X82196392Y-113691989D01*
X82196392Y-113691988D01*
X82270771Y-113552836D01*
X82312384Y-113502130D01*
X82370867Y-113430867D01*
X82492835Y-113330771D01*
X82518247Y-113317188D01*
X82631987Y-113256392D01*
X82682318Y-113241125D01*
X82782977Y-113210590D01*
X82940000Y-113195125D01*
X83097022Y-113210590D01*
G37*
G36*
X59485818Y-114407696D02*
G01*
X59599105Y-114442062D01*
X59703512Y-114497869D01*
X59795027Y-114572973D01*
X59870131Y-114664488D01*
X59925938Y-114768895D01*
X59960304Y-114882182D01*
X59971907Y-115000000D01*
X59960304Y-115117818D01*
X59925938Y-115231105D01*
X59870131Y-115335512D01*
X59795027Y-115427027D01*
X59703512Y-115502131D01*
X59599105Y-115557938D01*
X59485818Y-115592304D01*
X59397519Y-115601000D01*
X57938481Y-115601000D01*
X57850182Y-115592304D01*
X57736895Y-115557938D01*
X57632488Y-115502131D01*
X57540973Y-115427027D01*
X57465869Y-115335512D01*
X57410062Y-115231105D01*
X57375696Y-115117818D01*
X57364093Y-115000000D01*
X57375696Y-114882182D01*
X57410062Y-114768895D01*
X57465869Y-114664488D01*
X57540973Y-114572973D01*
X57632488Y-114497869D01*
X57736895Y-114442062D01*
X57850182Y-114407696D01*
X57938481Y-114399000D01*
X59397519Y-114399000D01*
X59485818Y-114407696D01*
G37*
G36*
X74885818Y-114407696D02*
G01*
X74999105Y-114442062D01*
X75103512Y-114497869D01*
X75195027Y-114572973D01*
X75270131Y-114664488D01*
X75325938Y-114768895D01*
X75360304Y-114882182D01*
X75371907Y-115000000D01*
X75360304Y-115117818D01*
X75325938Y-115231105D01*
X75270131Y-115335512D01*
X75195027Y-115427027D01*
X75103512Y-115502131D01*
X74999105Y-115557938D01*
X74885818Y-115592304D01*
X74797519Y-115601000D01*
X73338481Y-115601000D01*
X73250182Y-115592304D01*
X73136895Y-115557938D01*
X73032488Y-115502131D01*
X72940973Y-115427027D01*
X72865869Y-115335512D01*
X72810062Y-115231105D01*
X72775696Y-115117818D01*
X72764093Y-115000000D01*
X72775696Y-114882182D01*
X72810062Y-114768895D01*
X72865869Y-114664488D01*
X72940973Y-114572973D01*
X73032488Y-114497869D01*
X73136895Y-114442062D01*
X73250182Y-114407696D01*
X73338481Y-114399000D01*
X74797519Y-114399000D01*
X74885818Y-114407696D01*
G37*
G36*
X81201000Y-115601000D02*
G01*
X79599000Y-115601000D01*
X79599000Y-113199000D01*
X81201000Y-113199000D01*
X81201000Y-115601000D01*
G37*
G36*
X53613512Y-112683927D02*
G01*
X53762812Y-112713624D01*
X53926784Y-112781544D01*
X54074354Y-112880147D01*
X54199853Y-113005646D01*
X54298456Y-113153216D01*
X54366376Y-113317188D01*
X54401000Y-113491259D01*
X54401000Y-113668741D01*
X54366376Y-113842812D01*
X54298456Y-114006784D01*
X54199853Y-114154354D01*
X54074354Y-114279853D01*
X53926784Y-114378456D01*
X53762812Y-114446376D01*
X53613512Y-114476073D01*
X53588742Y-114481000D01*
X53411258Y-114481000D01*
X53386488Y-114476073D01*
X53237188Y-114446376D01*
X53073216Y-114378456D01*
X52925646Y-114279853D01*
X52800147Y-114154354D01*
X52701544Y-114006784D01*
X52633624Y-113842812D01*
X52599000Y-113668741D01*
X52599000Y-113491259D01*
X52633624Y-113317188D01*
X52701544Y-113153216D01*
X52800147Y-113005646D01*
X52925646Y-112880147D01*
X53073216Y-112781544D01*
X53237188Y-112713624D01*
X53386488Y-112683927D01*
X53411258Y-112679000D01*
X53588742Y-112679000D01*
X53613512Y-112683927D01*
G37*
G36*
X59485818Y-112407696D02*
G01*
X59599105Y-112442062D01*
X59703512Y-112497869D01*
X59795027Y-112572973D01*
X59870131Y-112664488D01*
X59925938Y-112768895D01*
X59960304Y-112882182D01*
X59971907Y-113000000D01*
X59960304Y-113117818D01*
X59925938Y-113231105D01*
X59870131Y-113335512D01*
X59795027Y-113427027D01*
X59703512Y-113502131D01*
X59599105Y-113557938D01*
X59485818Y-113592304D01*
X59397519Y-113601000D01*
X57938481Y-113601000D01*
X57850182Y-113592304D01*
X57736895Y-113557938D01*
X57632488Y-113502131D01*
X57540973Y-113427027D01*
X57465869Y-113335512D01*
X57410062Y-113231105D01*
X57375696Y-113117818D01*
X57364093Y-113000000D01*
X57375696Y-112882182D01*
X57410062Y-112768895D01*
X57465869Y-112664488D01*
X57540973Y-112572973D01*
X57632488Y-112497869D01*
X57736895Y-112442062D01*
X57850182Y-112407696D01*
X57938481Y-112399000D01*
X59397519Y-112399000D01*
X59485818Y-112407696D01*
G37*
G36*
X74885818Y-112407696D02*
G01*
X74999105Y-112442062D01*
X75103512Y-112497869D01*
X75195027Y-112572973D01*
X75270131Y-112664488D01*
X75325938Y-112768895D01*
X75360304Y-112882182D01*
X75371907Y-113000000D01*
X75360304Y-113117818D01*
X75325938Y-113231105D01*
X75270131Y-113335512D01*
X75195027Y-113427027D01*
X75103512Y-113502131D01*
X74999105Y-113557938D01*
X74885818Y-113592304D01*
X74797519Y-113601000D01*
X73338481Y-113601000D01*
X73250182Y-113592304D01*
X73136895Y-113557938D01*
X73032488Y-113502131D01*
X72940973Y-113427027D01*
X72865869Y-113335512D01*
X72810062Y-113231105D01*
X72775696Y-113117818D01*
X72764093Y-113000000D01*
X72775696Y-112882182D01*
X72810062Y-112768895D01*
X72865869Y-112664488D01*
X72940973Y-112572973D01*
X73032488Y-112497869D01*
X73136895Y-112442062D01*
X73250182Y-112407696D01*
X73338481Y-112399000D01*
X74797519Y-112399000D01*
X74885818Y-112407696D01*
G37*
G36*
X53613512Y-110143927D02*
G01*
X53762812Y-110173624D01*
X53926784Y-110241544D01*
X54074354Y-110340147D01*
X54199853Y-110465646D01*
X54298456Y-110613216D01*
X54366376Y-110777188D01*
X54401000Y-110951259D01*
X54401000Y-111128741D01*
X54366376Y-111302812D01*
X54298456Y-111466784D01*
X54199853Y-111614354D01*
X54074354Y-111739853D01*
X53926784Y-111838456D01*
X53762812Y-111906376D01*
X53613512Y-111936073D01*
X53588742Y-111941000D01*
X53411258Y-111941000D01*
X53386488Y-111936073D01*
X53237188Y-111906376D01*
X53073216Y-111838456D01*
X52925646Y-111739853D01*
X52800147Y-111614354D01*
X52701544Y-111466784D01*
X52633624Y-111302812D01*
X52599000Y-111128741D01*
X52599000Y-110951259D01*
X52633624Y-110777188D01*
X52701544Y-110613216D01*
X52800147Y-110465646D01*
X52925646Y-110340147D01*
X53073216Y-110241544D01*
X53237188Y-110173624D01*
X53386488Y-110143927D01*
X53411258Y-110139000D01*
X53588742Y-110139000D01*
X53613512Y-110143927D01*
G37*
G36*
X74885818Y-110407696D02*
G01*
X74999105Y-110442062D01*
X75103512Y-110497869D01*
X75195027Y-110572973D01*
X75270131Y-110664488D01*
X75325938Y-110768895D01*
X75360304Y-110882182D01*
X75371907Y-111000000D01*
X75360304Y-111117818D01*
X75325938Y-111231105D01*
X75270131Y-111335512D01*
X75195027Y-111427027D01*
X75103512Y-111502131D01*
X74999105Y-111557938D01*
X74885818Y-111592304D01*
X74797519Y-111601000D01*
X73338481Y-111601000D01*
X73250182Y-111592304D01*
X73136895Y-111557938D01*
X73032488Y-111502131D01*
X72940973Y-111427027D01*
X72865869Y-111335512D01*
X72810062Y-111231105D01*
X72775696Y-111117818D01*
X72764093Y-111000000D01*
X72775696Y-110882182D01*
X72810062Y-110768895D01*
X72865869Y-110664488D01*
X72940973Y-110572973D01*
X73032488Y-110497869D01*
X73136895Y-110442062D01*
X73250182Y-110407696D01*
X73338481Y-110399000D01*
X74797519Y-110399000D01*
X74885818Y-110407696D01*
G37*
G36*
X59485818Y-110407696D02*
G01*
X59599105Y-110442062D01*
X59703512Y-110497869D01*
X59795027Y-110572973D01*
X59870131Y-110664488D01*
X59925938Y-110768895D01*
X59960304Y-110882182D01*
X59971907Y-111000000D01*
X59960304Y-111117818D01*
X59925938Y-111231105D01*
X59870131Y-111335512D01*
X59795027Y-111427027D01*
X59703512Y-111502131D01*
X59599105Y-111557938D01*
X59485818Y-111592304D01*
X59397519Y-111601000D01*
X57938481Y-111601000D01*
X57850182Y-111592304D01*
X57736895Y-111557938D01*
X57632488Y-111502131D01*
X57540973Y-111427027D01*
X57465869Y-111335512D01*
X57410062Y-111231105D01*
X57375696Y-111117818D01*
X57364093Y-111000000D01*
X57375696Y-110882182D01*
X57410062Y-110768895D01*
X57465869Y-110664488D01*
X57540973Y-110572973D01*
X57632488Y-110497869D01*
X57736895Y-110442062D01*
X57850182Y-110407696D01*
X57938481Y-110399000D01*
X59397519Y-110399000D01*
X59485818Y-110407696D01*
G37*
G36*
X74885818Y-108407696D02*
G01*
X74999105Y-108442062D01*
X75103512Y-108497869D01*
X75195027Y-108572973D01*
X75270131Y-108664488D01*
X75325938Y-108768895D01*
X75360304Y-108882182D01*
X75371907Y-109000000D01*
X75360304Y-109117818D01*
X75325938Y-109231105D01*
X75270131Y-109335512D01*
X75195027Y-109427027D01*
X75103512Y-109502131D01*
X74999105Y-109557938D01*
X74885818Y-109592304D01*
X74797519Y-109601000D01*
X73338481Y-109601000D01*
X73250182Y-109592304D01*
X73136895Y-109557938D01*
X73032488Y-109502131D01*
X72940973Y-109427027D01*
X72865869Y-109335512D01*
X72810062Y-109231105D01*
X72775696Y-109117818D01*
X72764093Y-109000000D01*
X72775696Y-108882182D01*
X72810062Y-108768895D01*
X72865869Y-108664488D01*
X72940973Y-108572973D01*
X73032488Y-108497869D01*
X73136895Y-108442062D01*
X73250182Y-108407696D01*
X73338481Y-108399000D01*
X74797519Y-108399000D01*
X74885818Y-108407696D01*
G37*
G36*
X59585818Y-108407696D02*
G01*
X59699105Y-108442062D01*
X59803512Y-108497869D01*
X59895027Y-108572973D01*
X59970131Y-108664488D01*
X60025938Y-108768895D01*
X60060304Y-108882182D01*
X60071907Y-109000000D01*
X60060304Y-109117818D01*
X60025938Y-109231105D01*
X59970131Y-109335512D01*
X59895027Y-109427027D01*
X59803512Y-109502131D01*
X59699105Y-109557938D01*
X59585818Y-109592304D01*
X59497519Y-109601000D01*
X58038481Y-109601000D01*
X57950182Y-109592304D01*
X57836895Y-109557938D01*
X57732488Y-109502131D01*
X57640973Y-109427027D01*
X57565869Y-109335512D01*
X57510062Y-109231105D01*
X57475696Y-109117818D01*
X57464093Y-109000000D01*
X57475696Y-108882182D01*
X57510062Y-108768895D01*
X57565869Y-108664488D01*
X57640973Y-108572973D01*
X57732488Y-108497869D01*
X57836895Y-108442062D01*
X57950182Y-108407696D01*
X58038481Y-108399000D01*
X59497519Y-108399000D01*
X59585818Y-108407696D01*
G37*
G36*
X54401000Y-109401000D02*
G01*
X52599000Y-109401000D01*
X52599000Y-107599000D01*
X54401000Y-107599000D01*
X54401000Y-109401000D01*
G37*
G36*
X59485818Y-106407696D02*
G01*
X59599105Y-106442062D01*
X59703512Y-106497869D01*
X59795027Y-106572973D01*
X59870131Y-106664488D01*
X59925938Y-106768895D01*
X59960304Y-106882182D01*
X59971907Y-107000000D01*
X59960304Y-107117818D01*
X59925938Y-107231105D01*
X59870131Y-107335512D01*
X59795027Y-107427027D01*
X59703512Y-107502131D01*
X59599105Y-107557938D01*
X59485818Y-107592304D01*
X59397519Y-107601000D01*
X57938481Y-107601000D01*
X57850182Y-107592304D01*
X57736895Y-107557938D01*
X57632488Y-107502131D01*
X57540973Y-107427027D01*
X57465869Y-107335512D01*
X57410062Y-107231105D01*
X57375696Y-107117818D01*
X57364093Y-107000000D01*
X57375696Y-106882182D01*
X57410062Y-106768895D01*
X57465869Y-106664488D01*
X57540973Y-106572973D01*
X57632488Y-106497869D01*
X57736895Y-106442062D01*
X57850182Y-106407696D01*
X57938481Y-106399000D01*
X59397519Y-106399000D01*
X59485818Y-106407696D01*
G37*
G36*
X74885818Y-106407696D02*
G01*
X74999105Y-106442062D01*
X75103512Y-106497869D01*
X75195027Y-106572973D01*
X75270131Y-106664488D01*
X75325938Y-106768895D01*
X75360304Y-106882182D01*
X75371907Y-107000000D01*
X75360304Y-107117818D01*
X75325938Y-107231105D01*
X75270131Y-107335512D01*
X75195027Y-107427027D01*
X75103512Y-107502131D01*
X74999105Y-107557938D01*
X74885818Y-107592304D01*
X74797519Y-107601000D01*
X73338481Y-107601000D01*
X73250182Y-107592304D01*
X73136895Y-107557938D01*
X73032488Y-107502131D01*
X72940973Y-107427027D01*
X72865869Y-107335512D01*
X72810062Y-107231105D01*
X72775696Y-107117818D01*
X72764093Y-107000000D01*
X72775696Y-106882182D01*
X72810062Y-106768895D01*
X72865869Y-106664488D01*
X72940973Y-106572973D01*
X73032488Y-106497869D01*
X73136895Y-106442062D01*
X73250182Y-106407696D01*
X73338481Y-106399000D01*
X74797519Y-106399000D01*
X74885818Y-106407696D01*
G37*
G36*
X69495818Y-104007696D02*
G01*
X69609105Y-104042062D01*
X69713512Y-104097869D01*
X69805027Y-104172973D01*
X69880131Y-104264488D01*
X69935938Y-104368895D01*
X69970304Y-104482182D01*
X69979000Y-104570481D01*
X69979000Y-106029519D01*
X69970304Y-106117818D01*
X69935938Y-106231105D01*
X69880131Y-106335512D01*
X69880130Y-106335513D01*
X69805027Y-106427027D01*
X69729923Y-106488662D01*
X69713511Y-106502131D01*
X69609104Y-106557938D01*
X69495817Y-106592304D01*
X69378000Y-106603907D01*
X69260182Y-106592304D01*
X69146895Y-106557938D01*
X69042488Y-106502131D01*
X68969295Y-106442063D01*
X68950973Y-106427027D01*
X68875870Y-106335512D01*
X68875869Y-106335511D01*
X68820062Y-106231104D01*
X68785696Y-106117817D01*
X68777000Y-106029518D01*
X68777001Y-104570481D01*
X68785697Y-104482182D01*
X68820063Y-104368895D01*
X68875870Y-104264488D01*
X68950974Y-104172973D01*
X69042489Y-104097869D01*
X69146896Y-104042062D01*
X69260183Y-104007696D01*
X69378000Y-103996093D01*
X69495818Y-104007696D01*
G37*
G36*
X71495818Y-104007696D02*
G01*
X71609105Y-104042062D01*
X71713512Y-104097869D01*
X71805027Y-104172973D01*
X71880131Y-104264488D01*
X71935938Y-104368895D01*
X71970304Y-104482182D01*
X71979000Y-104570481D01*
X71979000Y-106029519D01*
X71970304Y-106117818D01*
X71935938Y-106231105D01*
X71880131Y-106335512D01*
X71880130Y-106335513D01*
X71805027Y-106427027D01*
X71729923Y-106488662D01*
X71713511Y-106502131D01*
X71609104Y-106557938D01*
X71495817Y-106592304D01*
X71378000Y-106603907D01*
X71260182Y-106592304D01*
X71146895Y-106557938D01*
X71042488Y-106502131D01*
X70969295Y-106442063D01*
X70950973Y-106427027D01*
X70875870Y-106335512D01*
X70875869Y-106335511D01*
X70820062Y-106231104D01*
X70785696Y-106117817D01*
X70777000Y-106029518D01*
X70777001Y-104570481D01*
X70785697Y-104482182D01*
X70820063Y-104368895D01*
X70875870Y-104264488D01*
X70950974Y-104172973D01*
X71042489Y-104097869D01*
X71146896Y-104042062D01*
X71260183Y-104007696D01*
X71378000Y-103996093D01*
X71495818Y-104007696D01*
G37*
G36*
X67495818Y-104007696D02*
G01*
X67609105Y-104042062D01*
X67713512Y-104097869D01*
X67805027Y-104172973D01*
X67880131Y-104264488D01*
X67935938Y-104368895D01*
X67970304Y-104482182D01*
X67979000Y-104570481D01*
X67979000Y-106029519D01*
X67970304Y-106117818D01*
X67935938Y-106231105D01*
X67880131Y-106335512D01*
X67880130Y-106335513D01*
X67805027Y-106427027D01*
X67729923Y-106488662D01*
X67713511Y-106502131D01*
X67609104Y-106557938D01*
X67495817Y-106592304D01*
X67378000Y-106603907D01*
X67260182Y-106592304D01*
X67146895Y-106557938D01*
X67042488Y-106502131D01*
X66969295Y-106442063D01*
X66950973Y-106427027D01*
X66875870Y-106335512D01*
X66875869Y-106335511D01*
X66820062Y-106231104D01*
X66785696Y-106117817D01*
X66777000Y-106029518D01*
X66777001Y-104570481D01*
X66785697Y-104482182D01*
X66820063Y-104368895D01*
X66875870Y-104264488D01*
X66950974Y-104172973D01*
X67042489Y-104097869D01*
X67146896Y-104042062D01*
X67260183Y-104007696D01*
X67378000Y-103996093D01*
X67495818Y-104007696D01*
G37*
G36*
X65495818Y-104007696D02*
G01*
X65609105Y-104042062D01*
X65713512Y-104097869D01*
X65805027Y-104172973D01*
X65880131Y-104264488D01*
X65935938Y-104368895D01*
X65970304Y-104482182D01*
X65979000Y-104570481D01*
X65979000Y-106029519D01*
X65970304Y-106117818D01*
X65935938Y-106231105D01*
X65880131Y-106335512D01*
X65880130Y-106335513D01*
X65805027Y-106427027D01*
X65729923Y-106488662D01*
X65713511Y-106502131D01*
X65609104Y-106557938D01*
X65495817Y-106592304D01*
X65378000Y-106603907D01*
X65260182Y-106592304D01*
X65146895Y-106557938D01*
X65042488Y-106502131D01*
X64969295Y-106442063D01*
X64950973Y-106427027D01*
X64875870Y-106335512D01*
X64875869Y-106335511D01*
X64820062Y-106231104D01*
X64785696Y-106117817D01*
X64777000Y-106029518D01*
X64777001Y-104570481D01*
X64785697Y-104482182D01*
X64820063Y-104368895D01*
X64875870Y-104264488D01*
X64950974Y-104172973D01*
X65042489Y-104097869D01*
X65146896Y-104042062D01*
X65260183Y-104007696D01*
X65378000Y-103996093D01*
X65495818Y-104007696D01*
G37*
G36*
X63495818Y-104007696D02*
G01*
X63609105Y-104042062D01*
X63713512Y-104097869D01*
X63805027Y-104172973D01*
X63880131Y-104264488D01*
X63935938Y-104368895D01*
X63970304Y-104482182D01*
X63979000Y-104570481D01*
X63979000Y-106029519D01*
X63970304Y-106117818D01*
X63935938Y-106231105D01*
X63880131Y-106335512D01*
X63880130Y-106335513D01*
X63805027Y-106427027D01*
X63729923Y-106488662D01*
X63713511Y-106502131D01*
X63609104Y-106557938D01*
X63495817Y-106592304D01*
X63378000Y-106603907D01*
X63260182Y-106592304D01*
X63146895Y-106557938D01*
X63042488Y-106502131D01*
X62969295Y-106442063D01*
X62950973Y-106427027D01*
X62875870Y-106335512D01*
X62875869Y-106335511D01*
X62820062Y-106231104D01*
X62785696Y-106117817D01*
X62777000Y-106029518D01*
X62777001Y-104570481D01*
X62785697Y-104482182D01*
X62820063Y-104368895D01*
X62875870Y-104264488D01*
X62950974Y-104172973D01*
X63042489Y-104097869D01*
X63146896Y-104042062D01*
X63260183Y-104007696D01*
X63378000Y-103996093D01*
X63495818Y-104007696D01*
G37*
G36*
X61495818Y-104007696D02*
G01*
X61609105Y-104042062D01*
X61713512Y-104097869D01*
X61805027Y-104172973D01*
X61880131Y-104264488D01*
X61935938Y-104368895D01*
X61970304Y-104482182D01*
X61979000Y-104570481D01*
X61979000Y-106029519D01*
X61970304Y-106117818D01*
X61935938Y-106231105D01*
X61880131Y-106335512D01*
X61880130Y-106335513D01*
X61805027Y-106427027D01*
X61729923Y-106488662D01*
X61713511Y-106502131D01*
X61609104Y-106557938D01*
X61495817Y-106592304D01*
X61378000Y-106603907D01*
X61260182Y-106592304D01*
X61146895Y-106557938D01*
X61042488Y-106502131D01*
X60969295Y-106442063D01*
X60950973Y-106427027D01*
X60875870Y-106335512D01*
X60875869Y-106335511D01*
X60820062Y-106231104D01*
X60785696Y-106117817D01*
X60777000Y-106029518D01*
X60777001Y-104570481D01*
X60785697Y-104482182D01*
X60820063Y-104368895D01*
X60875870Y-104264488D01*
X60950974Y-104172973D01*
X61042489Y-104097869D01*
X61146896Y-104042062D01*
X61260183Y-104007696D01*
X61378000Y-103996093D01*
X61495818Y-104007696D01*
G37*
G36*
X86875256Y-101891298D02*
G01*
X86981579Y-101912447D01*
X87282042Y-102036903D01*
X87552451Y-102217585D01*
X87782415Y-102447549D01*
X87963097Y-102717958D01*
X88087553Y-103018421D01*
X88151000Y-103337391D01*
X88151000Y-103662609D01*
X88087553Y-103981579D01*
X87963097Y-104282042D01*
X87782415Y-104552451D01*
X87552451Y-104782415D01*
X87282042Y-104963097D01*
X86981579Y-105087553D01*
X86875256Y-105108702D01*
X86662611Y-105151000D01*
X86337389Y-105151000D01*
X86124744Y-105108702D01*
X86018421Y-105087553D01*
X85717958Y-104963097D01*
X85447549Y-104782415D01*
X85217585Y-104552451D01*
X85036903Y-104282042D01*
X84912447Y-103981579D01*
X84849000Y-103662609D01*
X84849000Y-103337391D01*
X84912447Y-103018421D01*
X85036903Y-102717958D01*
X85217585Y-102447549D01*
X85447549Y-102217585D01*
X85717958Y-102036903D01*
X86018421Y-101912447D01*
X86124744Y-101891298D01*
X86337389Y-101849000D01*
X86662611Y-101849000D01*
X86875256Y-101891298D01*
G37*
G36*
X53875256Y-101891298D02*
G01*
X53981579Y-101912447D01*
X54282042Y-102036903D01*
X54552451Y-102217585D01*
X54782415Y-102447549D01*
X54963097Y-102717958D01*
X55087553Y-103018421D01*
X55151000Y-103337391D01*
X55151000Y-103662609D01*
X55087553Y-103981579D01*
X54963097Y-104282042D01*
X54782415Y-104552451D01*
X54552451Y-104782415D01*
X54282042Y-104963097D01*
X53981579Y-105087553D01*
X53875256Y-105108702D01*
X53662611Y-105151000D01*
X53337389Y-105151000D01*
X53124744Y-105108702D01*
X53018421Y-105087553D01*
X52717958Y-104963097D01*
X52447549Y-104782415D01*
X52217585Y-104552451D01*
X52036903Y-104282042D01*
X51912447Y-103981579D01*
X51849000Y-103662609D01*
X51849000Y-103337391D01*
X51912447Y-103018421D01*
X52036903Y-102717958D01*
X52217585Y-102447549D01*
X52447549Y-102217585D01*
X52717958Y-102036903D01*
X53018421Y-101912447D01*
X53124744Y-101891298D01*
X53337389Y-101849000D01*
X53662611Y-101849000D01*
X53875256Y-101891298D01*
G37*
M02*
