G04 #@! TF.GenerationSoftware,KiCad,Pcbnew,(5.1.5)-3*
G04 #@! TF.CreationDate,2020-04-12T01:01:47+02:00*
G04 #@! TF.ProjectId,schinkli_brain,73636869-6e6b-46c6-995f-627261696e2e,rev?*
G04 #@! TF.SameCoordinates,Original*
G04 #@! TF.FileFunction,Legend,Top*
G04 #@! TF.FilePolarity,Positive*
%FSLAX46Y46*%
G04 Gerber Fmt 4.6, Leading zero omitted, Abs format (unit mm)*
G04 Created by KiCad (PCBNEW (5.1.5)-3) date 2020-04-12 01:01:47*
%MOMM*%
%LPD*%
G04 APERTURE LIST*
%ADD10C,0.150000*%
%ADD11C,0.120000*%
%ADD12C,0.010000*%
%ADD13C,0.152400*%
G04 APERTURE END LIST*
D10*
X84925047Y-122677428D02*
X85686952Y-122677428D01*
X79591047Y-122677428D02*
X80352952Y-122677428D01*
X79972000Y-123058380D02*
X79972000Y-122296476D01*
D11*
X87592000Y-117526000D02*
X87592000Y-120574000D01*
X77940000Y-117526000D02*
X87592000Y-117526000D01*
X86068000Y-122098000D02*
X87592000Y-120574000D01*
X77940000Y-122098000D02*
X86068000Y-122098000D01*
X77940000Y-117526000D02*
X77940000Y-122098000D01*
X52170000Y-107170000D02*
X53500000Y-107170000D01*
X52170000Y-108500000D02*
X52170000Y-107170000D01*
X52170000Y-109770000D02*
X54830000Y-109770000D01*
X54830000Y-109770000D02*
X54830000Y-122530000D01*
X52170000Y-109770000D02*
X52170000Y-122530000D01*
X52170000Y-122530000D02*
X54830000Y-122530000D01*
D12*
G36*
X80011988Y-126231839D02*
G01*
X80092895Y-126400109D01*
X80131985Y-126629588D01*
X80114844Y-126866465D01*
X80101336Y-126916639D01*
X79999570Y-127059214D01*
X79862620Y-127084808D01*
X79754995Y-126982600D01*
X79752034Y-126975237D01*
X79715405Y-126762200D01*
X79733060Y-126517863D01*
X79793088Y-126304793D01*
X79883581Y-126185559D01*
X79903673Y-126178592D01*
X80011988Y-126231839D01*
G37*
X80011988Y-126231839D02*
X80092895Y-126400109D01*
X80131985Y-126629588D01*
X80114844Y-126866465D01*
X80101336Y-126916639D01*
X79999570Y-127059214D01*
X79862620Y-127084808D01*
X79754995Y-126982600D01*
X79752034Y-126975237D01*
X79715405Y-126762200D01*
X79733060Y-126517863D01*
X79793088Y-126304793D01*
X79883581Y-126185559D01*
X79903673Y-126178592D01*
X80011988Y-126231839D01*
G36*
X77647615Y-126197173D02*
G01*
X77684597Y-126285309D01*
X77766380Y-126664733D01*
X77696746Y-126987288D01*
X77683021Y-127014233D01*
X77563130Y-127159273D01*
X77454910Y-127140887D01*
X77398725Y-127044075D01*
X77351171Y-126807769D01*
X77353458Y-126533885D01*
X77399650Y-126292904D01*
X77472930Y-126163164D01*
X77573198Y-126114909D01*
X77647615Y-126197173D01*
G37*
X77647615Y-126197173D02*
X77684597Y-126285309D01*
X77766380Y-126664733D01*
X77696746Y-126987288D01*
X77683021Y-127014233D01*
X77563130Y-127159273D01*
X77454910Y-127140887D01*
X77398725Y-127044075D01*
X77351171Y-126807769D01*
X77353458Y-126533885D01*
X77399650Y-126292904D01*
X77472930Y-126163164D01*
X77573198Y-126114909D01*
X77647615Y-126197173D01*
G36*
X80460693Y-127472558D02*
G01*
X80480000Y-127543538D01*
X80405850Y-127627939D01*
X80214537Y-127728759D01*
X80028058Y-127797538D01*
X79741012Y-127886288D01*
X79574331Y-127927347D01*
X79486975Y-127924224D01*
X79437902Y-127880429D01*
X79418185Y-127849700D01*
X79385048Y-127784914D01*
X79406083Y-127736637D01*
X79513404Y-127683620D01*
X79739120Y-127604612D01*
X79838916Y-127571264D01*
X80166663Y-127471464D01*
X80365316Y-127438934D01*
X80460693Y-127472558D01*
G37*
X80460693Y-127472558D02*
X80480000Y-127543538D01*
X80405850Y-127627939D01*
X80214537Y-127728759D01*
X80028058Y-127797538D01*
X79741012Y-127886288D01*
X79574331Y-127927347D01*
X79486975Y-127924224D01*
X79437902Y-127880429D01*
X79418185Y-127849700D01*
X79385048Y-127784914D01*
X79406083Y-127736637D01*
X79513404Y-127683620D01*
X79739120Y-127604612D01*
X79838916Y-127571264D01*
X80166663Y-127471464D01*
X80365316Y-127438934D01*
X80460693Y-127472558D01*
G36*
X77794175Y-127640562D02*
G01*
X77964752Y-127708153D01*
X78023674Y-127797679D01*
X78024667Y-127814613D01*
X77997536Y-127902813D01*
X77894110Y-127925585D01*
X77681339Y-127884884D01*
X77532081Y-127843786D01*
X77355994Y-127757637D01*
X77289960Y-127658658D01*
X77341791Y-127588529D01*
X77483117Y-127582550D01*
X77794175Y-127640562D01*
G37*
X77794175Y-127640562D02*
X77964752Y-127708153D01*
X78023674Y-127797679D01*
X78024667Y-127814613D01*
X77997536Y-127902813D01*
X77894110Y-127925585D01*
X77681339Y-127884884D01*
X77532081Y-127843786D01*
X77355994Y-127757637D01*
X77289960Y-127658658D01*
X77341791Y-127588529D01*
X77483117Y-127582550D01*
X77794175Y-127640562D01*
G36*
X78806493Y-127127350D02*
G01*
X78910019Y-127340410D01*
X79009895Y-127615054D01*
X79087545Y-127899083D01*
X79124394Y-128140296D01*
X79125264Y-128172833D01*
X79082728Y-128379773D01*
X78978669Y-128452104D01*
X78848616Y-128376099D01*
X78796567Y-128299833D01*
X78726025Y-128196592D01*
X78678784Y-128243950D01*
X78656302Y-128299833D01*
X78546433Y-128429702D01*
X78412044Y-128421491D01*
X78330058Y-128314075D01*
X78287822Y-128120206D01*
X78278667Y-127986171D01*
X78310395Y-127792990D01*
X78390614Y-127551720D01*
X78496875Y-127311326D01*
X78606729Y-127120778D01*
X78697729Y-127029042D01*
X78717894Y-127028076D01*
X78806493Y-127127350D01*
G37*
X78806493Y-127127350D02*
X78910019Y-127340410D01*
X79009895Y-127615054D01*
X79087545Y-127899083D01*
X79124394Y-128140296D01*
X79125264Y-128172833D01*
X79082728Y-128379773D01*
X78978669Y-128452104D01*
X78848616Y-128376099D01*
X78796567Y-128299833D01*
X78726025Y-128196592D01*
X78678784Y-128243950D01*
X78656302Y-128299833D01*
X78546433Y-128429702D01*
X78412044Y-128421491D01*
X78330058Y-128314075D01*
X78287822Y-128120206D01*
X78278667Y-127986171D01*
X78310395Y-127792990D01*
X78390614Y-127551720D01*
X78496875Y-127311326D01*
X78606729Y-127120778D01*
X78697729Y-127029042D01*
X78717894Y-127028076D01*
X78806493Y-127127350D01*
G36*
X77991995Y-128066623D02*
G01*
X78024655Y-128140476D01*
X78024667Y-128142642D01*
X77943716Y-128250478D01*
X77710953Y-128321427D01*
X77707167Y-128322041D01*
X77441057Y-128367077D01*
X77216054Y-128408743D01*
X77199167Y-128412158D01*
X77045113Y-128405307D01*
X77008667Y-128319956D01*
X77025945Y-128229657D01*
X77101211Y-128168464D01*
X77269605Y-128121962D01*
X77566270Y-128075733D01*
X77622500Y-128068132D01*
X77870670Y-128044866D01*
X77991995Y-128066623D01*
G37*
X77991995Y-128066623D02*
X78024655Y-128140476D01*
X78024667Y-128142642D01*
X77943716Y-128250478D01*
X77710953Y-128321427D01*
X77707167Y-128322041D01*
X77441057Y-128367077D01*
X77216054Y-128408743D01*
X77199167Y-128412158D01*
X77045113Y-128405307D01*
X77008667Y-128319956D01*
X77025945Y-128229657D01*
X77101211Y-128168464D01*
X77269605Y-128121962D01*
X77566270Y-128075733D01*
X77622500Y-128068132D01*
X77870670Y-128044866D01*
X77991995Y-128066623D01*
G36*
X79841583Y-128181036D02*
G01*
X80236672Y-128266764D01*
X80412035Y-128315915D01*
X80695911Y-128413214D01*
X80832880Y-128499800D01*
X80847477Y-128579710D01*
X80822984Y-128643618D01*
X80787084Y-128677177D01*
X80706390Y-128677051D01*
X80547510Y-128639906D01*
X80277054Y-128562406D01*
X80071474Y-128502197D01*
X79780773Y-128406113D01*
X79570906Y-128315257D01*
X79479432Y-128246479D01*
X79478807Y-128236333D01*
X79587223Y-128170744D01*
X79841583Y-128181036D01*
G37*
X79841583Y-128181036D02*
X80236672Y-128266764D01*
X80412035Y-128315915D01*
X80695911Y-128413214D01*
X80832880Y-128499800D01*
X80847477Y-128579710D01*
X80822984Y-128643618D01*
X80787084Y-128677177D01*
X80706390Y-128677051D01*
X80547510Y-128639906D01*
X80277054Y-128562406D01*
X80071474Y-128502197D01*
X79780773Y-128406113D01*
X79570906Y-128315257D01*
X79479432Y-128246479D01*
X79478807Y-128236333D01*
X79587223Y-128170744D01*
X79841583Y-128181036D01*
G36*
X77164383Y-122046177D02*
G01*
X77261520Y-122274540D01*
X77386652Y-122660339D01*
X77541293Y-123207821D01*
X77561571Y-123283333D01*
X77912359Y-124595667D01*
X80183667Y-124640409D01*
X80691667Y-123348038D01*
X80866491Y-122915786D01*
X81025826Y-122545036D01*
X81157639Y-122262007D01*
X81249899Y-122092923D01*
X81284333Y-122056399D01*
X81345798Y-122135576D01*
X81443125Y-122359312D01*
X81570692Y-122707991D01*
X81722875Y-123162000D01*
X81894053Y-123701724D01*
X82078600Y-124307548D01*
X82270895Y-124959858D01*
X82465314Y-125639040D01*
X82656233Y-126325479D01*
X82838031Y-126999560D01*
X83005083Y-127641670D01*
X83151767Y-128232193D01*
X83272459Y-128751516D01*
X83361537Y-129180023D01*
X83409873Y-129470645D01*
X83433909Y-129725434D01*
X83414077Y-129852027D01*
X83344264Y-129887300D01*
X83340800Y-129887333D01*
X83258315Y-129824545D01*
X83182496Y-129625262D01*
X83107181Y-129273500D01*
X83034495Y-128910087D01*
X82930065Y-128450384D01*
X82799507Y-127914287D01*
X82648435Y-127321690D01*
X82482466Y-126692491D01*
X82307215Y-126046585D01*
X82128297Y-125403867D01*
X81951328Y-124784235D01*
X81781923Y-124207583D01*
X81625698Y-123693808D01*
X81488268Y-123262805D01*
X81375248Y-122934470D01*
X81292255Y-122728700D01*
X81244903Y-122665389D01*
X81242631Y-122667299D01*
X81193510Y-122766683D01*
X81096938Y-122993259D01*
X80965719Y-123315971D01*
X80812658Y-123703762D01*
X80770530Y-123812283D01*
X80353000Y-124891566D01*
X79059738Y-124891783D01*
X77766475Y-124892000D01*
X77687120Y-124683281D01*
X77633409Y-124516357D01*
X77550789Y-124229757D01*
X77451815Y-123867983D01*
X77376127Y-123580747D01*
X77278672Y-123232704D01*
X77190363Y-122967940D01*
X77121653Y-122814748D01*
X77085738Y-122794632D01*
X77057584Y-122894697D01*
X76999373Y-123137624D01*
X76916069Y-123500605D01*
X76812633Y-123960830D01*
X76694029Y-124495490D01*
X76565221Y-125081776D01*
X76431170Y-125696877D01*
X76296839Y-126317985D01*
X76167192Y-126922289D01*
X76047192Y-127486982D01*
X75941801Y-127989252D01*
X75855982Y-128406291D01*
X75794698Y-128715289D01*
X75777383Y-128807833D01*
X75709536Y-129024432D01*
X75616931Y-129123405D01*
X75602244Y-129125333D01*
X75495699Y-129064576D01*
X75484260Y-129019500D01*
X75501540Y-128903376D01*
X75550986Y-128641026D01*
X75628580Y-128251649D01*
X75730305Y-127754442D01*
X75852145Y-127168601D01*
X75990082Y-126513324D01*
X76140100Y-125807809D01*
X76298182Y-125071254D01*
X76460311Y-124322854D01*
X76613630Y-123622000D01*
X76754586Y-122999980D01*
X76870003Y-122534366D01*
X76962934Y-122214662D01*
X77036432Y-122030373D01*
X77093547Y-121971001D01*
X77093727Y-121971000D01*
X77164383Y-122046177D01*
G37*
X77164383Y-122046177D02*
X77261520Y-122274540D01*
X77386652Y-122660339D01*
X77541293Y-123207821D01*
X77561571Y-123283333D01*
X77912359Y-124595667D01*
X80183667Y-124640409D01*
X80691667Y-123348038D01*
X80866491Y-122915786D01*
X81025826Y-122545036D01*
X81157639Y-122262007D01*
X81249899Y-122092923D01*
X81284333Y-122056399D01*
X81345798Y-122135576D01*
X81443125Y-122359312D01*
X81570692Y-122707991D01*
X81722875Y-123162000D01*
X81894053Y-123701724D01*
X82078600Y-124307548D01*
X82270895Y-124959858D01*
X82465314Y-125639040D01*
X82656233Y-126325479D01*
X82838031Y-126999560D01*
X83005083Y-127641670D01*
X83151767Y-128232193D01*
X83272459Y-128751516D01*
X83361537Y-129180023D01*
X83409873Y-129470645D01*
X83433909Y-129725434D01*
X83414077Y-129852027D01*
X83344264Y-129887300D01*
X83340800Y-129887333D01*
X83258315Y-129824545D01*
X83182496Y-129625262D01*
X83107181Y-129273500D01*
X83034495Y-128910087D01*
X82930065Y-128450384D01*
X82799507Y-127914287D01*
X82648435Y-127321690D01*
X82482466Y-126692491D01*
X82307215Y-126046585D01*
X82128297Y-125403867D01*
X81951328Y-124784235D01*
X81781923Y-124207583D01*
X81625698Y-123693808D01*
X81488268Y-123262805D01*
X81375248Y-122934470D01*
X81292255Y-122728700D01*
X81244903Y-122665389D01*
X81242631Y-122667299D01*
X81193510Y-122766683D01*
X81096938Y-122993259D01*
X80965719Y-123315971D01*
X80812658Y-123703762D01*
X80770530Y-123812283D01*
X80353000Y-124891566D01*
X79059738Y-124891783D01*
X77766475Y-124892000D01*
X77687120Y-124683281D01*
X77633409Y-124516357D01*
X77550789Y-124229757D01*
X77451815Y-123867983D01*
X77376127Y-123580747D01*
X77278672Y-123232704D01*
X77190363Y-122967940D01*
X77121653Y-122814748D01*
X77085738Y-122794632D01*
X77057584Y-122894697D01*
X76999373Y-123137624D01*
X76916069Y-123500605D01*
X76812633Y-123960830D01*
X76694029Y-124495490D01*
X76565221Y-125081776D01*
X76431170Y-125696877D01*
X76296839Y-126317985D01*
X76167192Y-126922289D01*
X76047192Y-127486982D01*
X75941801Y-127989252D01*
X75855982Y-128406291D01*
X75794698Y-128715289D01*
X75777383Y-128807833D01*
X75709536Y-129024432D01*
X75616931Y-129123405D01*
X75602244Y-129125333D01*
X75495699Y-129064576D01*
X75484260Y-129019500D01*
X75501540Y-128903376D01*
X75550986Y-128641026D01*
X75628580Y-128251649D01*
X75730305Y-127754442D01*
X75852145Y-127168601D01*
X75990082Y-126513324D01*
X76140100Y-125807809D01*
X76298182Y-125071254D01*
X76460311Y-124322854D01*
X76613630Y-123622000D01*
X76754586Y-122999980D01*
X76870003Y-122534366D01*
X76962934Y-122214662D01*
X77036432Y-122030373D01*
X77093547Y-121971001D01*
X77093727Y-121971000D01*
X77164383Y-122046177D01*
D13*
X58382000Y-105379000D02*
X58382000Y-106141000D01*
X74384000Y-105379000D02*
X58382000Y-105379000D01*
X74384000Y-106141000D02*
X74384000Y-105379000D01*
D11*
X76789000Y-116700000D02*
X78029000Y-116700000D01*
X76789000Y-115460000D02*
X76789000Y-116700000D01*
X88750000Y-107840000D02*
X88750000Y-116460000D01*
X77029000Y-107840000D02*
X77029000Y-116460000D01*
X77029000Y-116460000D02*
X88750000Y-116460000D01*
X77029000Y-107840000D02*
X88750000Y-107840000D01*
D10*
X50682666Y-106564380D02*
X50682666Y-107278666D01*
X50635047Y-107421523D01*
X50539809Y-107516761D01*
X50396952Y-107564380D01*
X50301714Y-107564380D01*
X51682666Y-107564380D02*
X51111238Y-107564380D01*
X51396952Y-107564380D02*
X51396952Y-106564380D01*
X51301714Y-106707238D01*
X51206476Y-106802476D01*
X51111238Y-106850095D01*
X81549523Y-115442380D02*
X81549523Y-116156666D01*
X81501904Y-116299523D01*
X81406666Y-116394761D01*
X81263809Y-116442380D01*
X81168571Y-116442380D01*
X81930476Y-115442380D02*
X82549523Y-115442380D01*
X82216190Y-115823333D01*
X82359047Y-115823333D01*
X82454285Y-115870952D01*
X82501904Y-115918571D01*
X82549523Y-116013809D01*
X82549523Y-116251904D01*
X82501904Y-116347142D01*
X82454285Y-116394761D01*
X82359047Y-116442380D01*
X82073333Y-116442380D01*
X81978095Y-116394761D01*
X81930476Y-116347142D01*
X82740000Y-116537619D02*
X83501904Y-116537619D01*
X84263809Y-116442380D02*
X83692380Y-116442380D01*
X83978095Y-116442380D02*
X83978095Y-115442380D01*
X83882857Y-115585238D01*
X83787619Y-115680476D01*
X83692380Y-115728095D01*
X88314380Y-121367523D02*
X89314380Y-121034190D01*
X88314380Y-120700857D01*
X89314380Y-120367523D02*
X88314380Y-120367523D01*
X89028666Y-120034190D01*
X88314380Y-119700857D01*
X89314380Y-119700857D01*
X88314380Y-119034190D02*
X88314380Y-118843714D01*
X88362000Y-118748476D01*
X88457238Y-118653238D01*
X88647714Y-118605619D01*
X88981047Y-118605619D01*
X89171523Y-118653238D01*
X89266761Y-118748476D01*
X89314380Y-118843714D01*
X89314380Y-119034190D01*
X89266761Y-119129428D01*
X89171523Y-119224666D01*
X88981047Y-119272285D01*
X88647714Y-119272285D01*
X88457238Y-119224666D01*
X88362000Y-119129428D01*
X88314380Y-119034190D01*
X88314380Y-118319904D02*
X88314380Y-117748476D01*
X89314380Y-118034190D02*
X88314380Y-118034190D01*
X63409714Y-114406571D02*
X63743047Y-114406571D01*
X63885904Y-114930380D02*
X63409714Y-114930380D01*
X63409714Y-113930380D01*
X63885904Y-113930380D01*
X64266857Y-114882761D02*
X64409714Y-114930380D01*
X64647809Y-114930380D01*
X64743047Y-114882761D01*
X64790666Y-114835142D01*
X64838285Y-114739904D01*
X64838285Y-114644666D01*
X64790666Y-114549428D01*
X64743047Y-114501809D01*
X64647809Y-114454190D01*
X64457333Y-114406571D01*
X64362095Y-114358952D01*
X64314476Y-114311333D01*
X64266857Y-114216095D01*
X64266857Y-114120857D01*
X64314476Y-114025619D01*
X64362095Y-113978000D01*
X64457333Y-113930380D01*
X64695428Y-113930380D01*
X64838285Y-113978000D01*
X65266857Y-114930380D02*
X65266857Y-113930380D01*
X65647809Y-113930380D01*
X65743047Y-113978000D01*
X65790666Y-114025619D01*
X65838285Y-114120857D01*
X65838285Y-114263714D01*
X65790666Y-114358952D01*
X65743047Y-114406571D01*
X65647809Y-114454190D01*
X65266857Y-114454190D01*
X66266857Y-114549428D02*
X67028761Y-114549428D01*
X68028761Y-114930380D02*
X67457333Y-114930380D01*
X67743047Y-114930380D02*
X67743047Y-113930380D01*
X67647809Y-114073238D01*
X67552571Y-114168476D01*
X67457333Y-114216095D01*
X68409714Y-114025619D02*
X68457333Y-113978000D01*
X68552571Y-113930380D01*
X68790666Y-113930380D01*
X68885904Y-113978000D01*
X68933523Y-114025619D01*
X68981142Y-114120857D01*
X68981142Y-114216095D01*
X68933523Y-114358952D01*
X68362095Y-114930380D01*
X68981142Y-114930380D01*
X69409714Y-114406571D02*
X69743047Y-114406571D01*
X69885904Y-114930380D02*
X69409714Y-114930380D01*
X69409714Y-113930380D01*
X69885904Y-113930380D01*
M02*
