M48
; DRILL file {KiCad (5.1.5)-3} date 12/04/2020 01:01:58
; FORMAT={-:-/ absolute / metric / decimal}
; #@! TF.CreationDate,2020-04-12T01:01:58+02:00
; #@! TF.GenerationSoftware,Kicad,Pcbnew,(5.1.5)-3
FMAT,2
METRIC
T1C0.650
T2C1.000
T3C1.501
T4C3.200
%
G90
G05
T1
X59.368Y-107.0
X59.368Y-109.0
X59.368Y-111.0
X59.368Y-113.0
X59.368Y-115.0
X59.368Y-117.0
X59.368Y-119.0
X59.368Y-121.0
X61.378Y-106.0
X63.378Y-106.0
X65.378Y-106.0
X67.378Y-106.0
X69.378Y-106.0
X71.378Y-106.0
X73.368Y-107.0
X73.368Y-109.0
X73.368Y-111.0
X73.368Y-113.0
X73.368Y-115.0
X73.368Y-117.0
X73.368Y-119.0
X73.368Y-121.0
T2
X80.4Y-114.4
X82.94Y-114.4
X85.48Y-114.4
X53.5Y-108.5
X53.5Y-111.04
X53.5Y-113.58
X53.5Y-116.12
X53.5Y-118.66
X53.5Y-121.2
T3
X80.2Y-119.8
X85.28Y-119.8
T4
X53.5Y-126.5
X86.5Y-103.5
X86.5Y-126.5
X53.5Y-103.5
T0
M30
